<svg xmlns="http://www.w3.org/2000/svg" width="1000" height="1000" viewBox="0 0 750 749.999995" preserveAspectRatio="xMidYMid meet" version="1.2" baseProfile="tiny-ps"><title>Never Off</title><defs><g/><clipPath id="f2d2b05a0c"><path d="M 5.542969 3.421875 L 744.457031 3.421875 L 744.457031 742.339844 L 5.542969 742.339844 Z M 5.542969 3.421875 " clip-rule="nonzero"/></clipPath><clipPath id="01e9ad265a"><path d="M 117.695312 3.421875 L 632.304688 3.421875 C 694.246094 3.421875 744.457031 53.636719 744.457031 115.574219 L 744.457031 630.1875 C 744.457031 692.125 694.246094 742.339844 632.304688 742.339844 L 117.695312 742.339844 C 55.753906 742.339844 5.542969 692.125 5.542969 630.1875 L 5.542969 115.574219 C 5.542969 53.636719 55.753906 3.421875 117.695312 3.421875 Z M 117.695312 3.421875 " clip-rule="nonzero"/></clipPath><clipPath id="d603bf7885"><path d="M 0.542969 0.421875 L 739.457031 0.421875 L 739.457031 739.339844 L 0.542969 739.339844 Z M 0.542969 0.421875 " clip-rule="nonzero"/></clipPath><clipPath id="413a1f9d12"><path d="M 112.695312 0.421875 L 627.304688 0.421875 C 689.246094 0.421875 739.457031 50.636719 739.457031 112.574219 L 739.457031 627.1875 C 739.457031 689.125 689.246094 739.339844 627.304688 739.339844 L 112.695312 739.339844 C 50.753906 739.339844 0.542969 689.125 0.542969 627.1875 L 0.542969 112.574219 C 0.542969 50.636719 50.753906 0.421875 112.695312 0.421875 Z M 112.695312 0.421875 " clip-rule="nonzero"/></clipPath><clipPath id="6fc076d138"><rect x="0" width="740" y="0" height="740"/></clipPath><clipPath id="ddfa11bc10"><rect x="0" width="360" y="0" height="437"/></clipPath><clipPath id="afcd5dac21"><rect x="0" width="432" y="0" height="179"/></clipPath><clipPath id="52b2a0b4e6"><rect x="0" width="227" y="0" height="179"/></clipPath></defs><rect x="-75" width="900" fill="#ffffff" y="-74.999999" height="899.999994" fill-opacity="1"/><rect x="-75" width="900" fill="#ffea2a" y="-74.999999" height="899.999994" fill-opacity="1"/><g clip-path="url(#f2d2b05a0c)"><g clip-path="url(#01e9ad265a)"><g transform="matrix(1, 0, 0, 1, 5, 3)"><g clip-path="url(#6fc076d138)"><g clip-path="url(#d603bf7885)"><g clip-path="url(#413a1f9d12)"><path fill="#ffea2a" d="M 0.542969 0.421875 L 739.457031 0.421875 L 739.457031 739.339844 L 0.542969 739.339844 Z M 0.542969 0.421875 " fill-opacity="1" fill-rule="nonzero"/></g></g></g></g></g></g><g transform="matrix(1, 0, 0, 1, 195, 138)"><g clip-path="url(#ddfa11bc10)"><g fill="#000000" fill-opacity="1"><g transform="translate(1.02323, 348.705102)"><g><path d="M 96.875 -193.5625 C 108 -193.675781 118.070312 -192.179688 127.09375 -189.078125 C 136.125 -185.972656 144.269531 -181.988281 151.53125 -177.125 C 158.800781 -172.257812 165.191406 -167.304688 170.703125 -162.265625 C 172.460938 -160.628906 173.925781 -159.222656 175.09375 -158.046875 C 176.269531 -156.878906 177.5625 -155.59375 178.96875 -154.1875 C 180.144531 -155.59375 181.375 -156.910156 182.65625 -158.140625 C 183.945312 -159.367188 185.296875 -160.628906 186.703125 -161.921875 C 195.140625 -169.765625 205.566406 -177 217.984375 -183.625 C 230.410156 -190.25 244.597656 -193.5625 260.546875 -193.5625 C 276.242188 -193.5625 290.476562 -189.8125 303.25 -182.3125 C 316.03125 -174.8125 326.203125 -164.878906 333.765625 -152.515625 C 341.328125 -140.148438 345.109375 -126.460938 345.109375 -111.453125 C 345.109375 -96.453125 341.328125 -82.738281 333.765625 -70.3125 C 326.203125 -57.894531 316.03125 -47.960938 303.25 -40.515625 C 290.476562 -33.078125 276.242188 -29.359375 260.546875 -29.359375 C 249.765625 -29.359375 239.859375 -30.878906 230.828125 -33.921875 C 221.804688 -36.972656 213.71875 -40.84375 206.5625 -45.53125 C 199.414062 -50.21875 193.085938 -55.023438 187.578125 -59.953125 C 185.472656 -61.710938 183.804688 -63.207031 182.578125 -64.4375 C 181.347656 -65.664062 180.144531 -66.984375 178.96875 -68.390625 C 177.445312 -66.742188 176.039062 -65.332031 174.75 -64.15625 C 173.457031 -62.988281 171.992188 -61.585938 170.359375 -59.953125 C 165.203125 -55.265625 159.019531 -50.578125 151.8125 -45.890625 C 144.601562 -41.203125 136.457031 -37.273438 127.375 -34.109375 C 118.289062 -30.941406 108.125 -29.359375 96.875 -29.359375 C 81.394531 -29.359375 67.269531 -33.078125 54.5 -40.515625 C 41.726562 -47.960938 31.53125 -57.894531 23.90625 -70.3125 C 16.289062 -82.738281 12.484375 -96.453125 12.484375 -111.453125 C 12.484375 -126.460938 16.289062 -140.175781 23.90625 -152.59375 C 31.53125 -165.019531 41.726562 -174.984375 54.5 -182.484375 C 67.269531 -189.984375 81.394531 -193.675781 96.875 -193.5625 Z M 65.578125 -111.453125 C 65.691406 -106.066406 67.15625 -101.144531 69.96875 -96.6875 C 72.78125 -92.238281 76.554688 -88.691406 81.296875 -86.046875 C 86.046875 -83.410156 91.238281 -82.09375 96.875 -82.09375 C 103.90625 -82.09375 110.40625 -83.53125 116.375 -86.40625 C 122.351562 -89.28125 128.15625 -93.296875 133.78125 -98.453125 C 136.832031 -100.910156 139.320312 -103.3125 141.25 -105.65625 C 143.1875 -108 144.800781 -109.929688 146.09375 -111.453125 C 144.6875 -112.984375 142.578125 -115.210938 139.765625 -118.140625 C 136.953125 -121.066406 134.957031 -123.117188 133.78125 -124.296875 C 128.863281 -128.867188 123.269531 -132.765625 117 -135.984375 C 110.726562 -139.203125 104.019531 -140.8125 96.875 -140.8125 C 91.238281 -140.8125 86.046875 -139.492188 81.296875 -136.859375 C 76.554688 -134.222656 72.78125 -130.675781 69.96875 -126.21875 C 67.15625 -121.769531 65.691406 -116.847656 65.578125 -111.453125 Z M 291.65625 -111.453125 C 291.769531 -116.847656 290.421875 -121.769531 287.609375 -126.21875 C 284.796875 -130.675781 281.070312 -134.222656 276.4375 -136.859375 C 271.8125 -139.492188 266.515625 -140.8125 260.546875 -140.8125 C 253.515625 -140.8125 246.832031 -139.140625 240.5 -135.796875 C 234.164062 -132.460938 228.65625 -128.570312 223.96875 -124.125 C 222.21875 -122.59375 220.109375 -120.507812 217.640625 -117.875 C 215.179688 -115.238281 213.304688 -113.097656 212.015625 -111.453125 C 213.546875 -109.234375 215.273438 -107.097656 217.203125 -105.046875 C 219.140625 -102.992188 221.394531 -100.796875 223.96875 -98.453125 C 229.363281 -93.410156 235.078125 -89.421875 241.109375 -86.484375 C 247.148438 -83.554688 253.628906 -82.09375 260.546875 -82.09375 C 266.515625 -82.09375 271.8125 -83.410156 276.4375 -86.046875 C 281.070312 -88.691406 284.796875 -92.238281 287.609375 -96.6875 C 290.421875 -101.144531 291.769531 -106.066406 291.65625 -111.453125 Z M 291.65625 -111.453125 "/></g></g></g></g></g><g transform="matrix(1, 0, 0, 1, 159, 124)"><g clip-path="url(#afcd5dac21)"><g fill="#000000" fill-opacity="1"><g transform="translate(0.509687, 142.402139)"><g><path d="M 8.03125 0 L 8.03125 -106.9375 L 35.59375 -106.9375 L 65.53125 -58.5625 C 67.300781 -55.695312 69.09375 -52.597656 70.90625 -49.265625 C 72.726562 -45.941406 74.546875 -42.28125 76.359375 -38.28125 C 78.179688 -34.289062 80 -29.851562 81.8125 -24.96875 L 79.3125 -23.390625 C 79.019531 -27.265625 78.738281 -31.570312 78.46875 -36.3125 C 78.207031 -41.050781 77.984375 -45.644531 77.796875 -50.09375 C 77.609375 -54.539062 77.515625 -58.25 77.515625 -61.21875 L 77.515625 -106.9375 L 103.421875 -106.9375 L 103.421875 0 L 75.78125 0 L 48.296875 -44.359375 C 46.097656 -47.992188 43.992188 -51.613281 41.984375 -55.21875 C 39.972656 -58.832031 37.925781 -62.78125 35.84375 -67.0625 C 33.769531 -71.351562 31.414062 -76.25 28.78125 -81.75 L 32.15625 -82.171875 C 32.488281 -77.097656 32.796875 -72.144531 33.078125 -67.3125 C 33.367188 -62.488281 33.585938 -58.085938 33.734375 -54.109375 C 33.878906 -50.140625 33.953125 -46.890625 33.953125 -44.359375 L 33.953125 0 Z M 8.03125 0 "/></g></g><g transform="translate(111.965578, 142.402139)"><g><path d="M 45 1.578125 C 36.769531 1.578125 29.640625 -0.09375 23.609375 -3.4375 C 17.578125 -6.789062 12.945312 -11.53125 9.71875 -17.65625 C 6.488281 -23.78125 4.875 -31.03125 4.875 -39.40625 C 4.875 -47.539062 6.488281 -54.679688 9.71875 -60.828125 C 12.945312 -66.972656 17.515625 -71.765625 23.421875 -75.203125 C 29.335938 -78.648438 36.242188 -80.375 44.140625 -80.375 C 49.785156 -80.375 54.960938 -79.476562 59.671875 -77.6875 C 64.390625 -75.894531 68.484375 -73.265625 71.953125 -69.796875 C 75.421875 -66.328125 78.097656 -62.09375 79.984375 -57.09375 C 81.878906 -52.09375 82.828125 -46.363281 82.828125 -39.90625 L 82.828125 -33.515625 L 13.5 -33.515625 L 13.5 -48.15625 L 70.984375 -48.15625 L 59.359375 -44.78125 C 59.359375 -48.414062 58.78125 -51.535156 57.625 -54.140625 C 56.476562 -56.753906 54.804688 -58.753906 52.609375 -60.140625 C 50.410156 -61.523438 47.679688 -62.21875 44.421875 -62.21875 C 41.210938 -62.21875 38.484375 -61.507812 36.234375 -60.09375 C 33.992188 -58.6875 32.285156 -56.710938 31.109375 -54.171875 C 29.941406 -51.640625 29.359375 -48.628906 29.359375 -45.140625 L 29.359375 -34.59375 C 29.359375 -30.664062 30.015625 -27.347656 31.328125 -24.640625 C 32.640625 -21.941406 34.515625 -19.910156 36.953125 -18.546875 C 39.398438 -17.179688 42.25 -16.5 45.5 -16.5 C 47.800781 -16.5 49.882812 -16.820312 51.75 -17.46875 C 53.613281 -18.113281 55.203125 -19.046875 56.515625 -20.265625 C 57.835938 -21.492188 58.832031 -22.992188 59.5 -24.765625 L 81.75 -21.890625 C 80.5 -17.203125 78.210938 -13.097656 74.890625 -9.578125 C 71.566406 -6.066406 67.367188 -3.328125 62.296875 -1.359375 C 57.222656 0.597656 51.457031 1.578125 45 1.578125 Z M 45 1.578125 "/></g></g></g><g fill="#000000" fill-opacity="1"><g transform="translate(196.795496, 142.402139)"><g><path d="M 30.078125 0 L 1.296875 -79.234375 L 27.5625 -79.234375 L 39.328125 -40.984375 C 40.910156 -35.816406 42.320312 -30.5625 43.5625 -25.21875 C 44.8125 -19.882812 46.054688 -14.300781 47.296875 -8.46875 L 42.421875 -8.46875 C 43.660156 -14.300781 44.878906 -19.875 46.078125 -25.1875 C 47.273438 -30.5 48.640625 -35.765625 50.171875 -40.984375 L 61.71875 -79.234375 L 87.703125 -79.234375 L 58.84375 0 Z M 30.078125 0 "/></g></g></g><g fill="#000000" fill-opacity="1"><g transform="translate(283.276066, 142.402139)"><g><path d="M 45 1.578125 C 36.769531 1.578125 29.640625 -0.09375 23.609375 -3.4375 C 17.578125 -6.789062 12.945312 -11.53125 9.71875 -17.65625 C 6.488281 -23.78125 4.875 -31.03125 4.875 -39.40625 C 4.875 -47.539062 6.488281 -54.679688 9.71875 -60.828125 C 12.945312 -66.972656 17.515625 -71.765625 23.421875 -75.203125 C 29.335938 -78.648438 36.242188 -80.375 44.140625 -80.375 C 49.785156 -80.375 54.960938 -79.476562 59.671875 -77.6875 C 64.390625 -75.894531 68.484375 -73.265625 71.953125 -69.796875 C 75.421875 -66.328125 78.097656 -62.09375 79.984375 -57.09375 C 81.878906 -52.09375 82.828125 -46.363281 82.828125 -39.90625 L 82.828125 -33.515625 L 13.5 -33.515625 L 13.5 -48.15625 L 70.984375 -48.15625 L 59.359375 -44.78125 C 59.359375 -48.414062 58.78125 -51.535156 57.625 -54.140625 C 56.476562 -56.753906 54.804688 -58.753906 52.609375 -60.140625 C 50.410156 -61.523438 47.679688 -62.21875 44.421875 -62.21875 C 41.210938 -62.21875 38.484375 -61.507812 36.234375 -60.09375 C 33.992188 -58.6875 32.285156 -56.710938 31.109375 -54.171875 C 29.941406 -51.640625 29.359375 -48.628906 29.359375 -45.140625 L 29.359375 -34.59375 C 29.359375 -30.664062 30.015625 -27.347656 31.328125 -24.640625 C 32.640625 -21.941406 34.515625 -19.910156 36.953125 -18.546875 C 39.398438 -17.179688 42.25 -16.5 45.5 -16.5 C 47.800781 -16.5 49.882812 -16.820312 51.75 -17.46875 C 53.613281 -18.113281 55.203125 -19.046875 56.515625 -20.265625 C 57.835938 -21.492188 58.832031 -22.992188 59.5 -24.765625 L 81.75 -21.890625 C 80.5 -17.203125 78.210938 -13.097656 74.890625 -9.578125 C 71.566406 -6.066406 67.367188 -3.328125 62.296875 -1.359375 C 57.222656 0.597656 51.457031 1.578125 45 1.578125 Z M 45 1.578125 "/></g></g></g><g fill="#000000" fill-opacity="1"><g transform="translate(370.61788, 142.402139)"><g><path d="M 7.96875 0 L 7.96875 -79.234375 L 32.15625 -79.234375 L 32.15625 -64.875 L 32.875 -64.875 C 34.3125 -70.09375 36.65625 -73.929688 39.90625 -76.390625 C 43.15625 -78.859375 47.054688 -80.09375 51.609375 -80.09375 C 52.796875 -80.09375 54 -80.03125 55.21875 -79.90625 C 56.445312 -79.789062 57.585938 -79.613281 58.640625 -79.375 L 58.640625 -57.921875 C 57.484375 -58.253906 55.9375 -58.503906 54 -58.671875 C 52.0625 -58.835938 50.304688 -58.921875 48.734375 -58.921875 C 45.671875 -58.921875 42.941406 -58.25 40.546875 -56.90625 C 38.160156 -55.570312 36.296875 -53.695312 34.953125 -51.28125 C 33.609375 -48.863281 32.9375 -46.003906 32.9375 -42.703125 L 32.9375 0 Z M 7.96875 0 "/></g></g></g></g></g><g transform="matrix(1, 0, 0, 1, 257, 449)"><g clip-path="url(#52b2a0b4e6)"><g fill="#000000" fill-opacity="1"><g transform="translate(0.933486, 143.052577)"><g><path d="M 56.40625 1.5 C 46.789062 1.5 38.128906 -0.640625 30.421875 -4.921875 C 22.722656 -9.203125 16.632812 -15.429688 12.15625 -23.609375 C 7.6875 -31.796875 5.453125 -41.722656 5.453125 -53.390625 C 5.453125 -65.117188 7.6875 -75.082031 12.15625 -83.28125 C 16.632812 -91.488281 22.722656 -97.734375 30.421875 -102.015625 C 38.128906 -106.296875 46.789062 -108.4375 56.40625 -108.4375 C 65.976562 -108.4375 74.601562 -106.296875 82.28125 -102.015625 C 89.957031 -97.734375 96.046875 -91.488281 100.546875 -83.28125 C 105.046875 -75.082031 107.296875 -65.117188 107.296875 -53.390625 C 107.296875 -41.722656 105.046875 -31.796875 100.546875 -23.609375 C 96.046875 -15.429688 89.957031 -9.203125 82.28125 -4.921875 C 74.601562 -0.640625 65.976562 1.5 56.40625 1.5 Z M 56.40625 -20.8125 C 61.570312 -20.8125 66.019531 -22.066406 69.75 -24.578125 C 73.488281 -27.085938 76.363281 -30.769531 78.375 -35.625 C 80.382812 -40.488281 81.390625 -46.410156 81.390625 -53.390625 C 81.390625 -60.429688 80.382812 -66.390625 78.375 -71.265625 C 76.363281 -76.148438 73.488281 -79.847656 69.75 -82.359375 C 66.019531 -84.867188 61.570312 -86.125 56.40625 -86.125 C 51.238281 -86.125 46.789062 -84.867188 43.0625 -82.359375 C 39.332031 -79.847656 36.445312 -76.148438 34.40625 -71.265625 C 32.375 -66.390625 31.359375 -60.429688 31.359375 -53.390625 C 31.359375 -46.410156 32.375 -40.488281 34.40625 -35.625 C 36.445312 -30.769531 39.332031 -27.085938 43.0625 -24.578125 C 46.789062 -22.066406 51.238281 -20.8125 56.40625 -20.8125 Z M 56.40625 -20.8125 "/></g></g><g transform="translate(113.681203, 143.052577)"><g><path d="M 55.84375 -79.234375 L 55.84375 -60.578125 L 1.4375 -60.578125 L 1.4375 -79.234375 Z M 15 0 L 15 -84.46875 C 15 -90.40625 16.109375 -95.320312 18.328125 -99.21875 C 20.554688 -103.125 23.703125 -106.03125 27.765625 -107.9375 C 31.835938 -109.851562 36.625 -110.8125 42.125 -110.8125 C 45.476562 -110.8125 48.660156 -110.59375 51.671875 -110.15625 C 54.691406 -109.726562 56.894531 -109.375 58.28125 -109.09375 L 55.1875 -90.578125 C 54.28125 -90.765625 53.144531 -90.941406 51.78125 -91.109375 C 50.414062 -91.273438 49.113281 -91.359375 47.875 -91.359375 C 44.90625 -91.359375 42.820312 -90.703125 41.625 -89.390625 C 40.425781 -88.078125 39.828125 -86.175781 39.828125 -83.6875 L 39.828125 0 Z M 15 0 "/></g></g></g><g fill="#000000" fill-opacity="1"><g transform="translate(166.50253, 143.052577)"><g><path d="M 55.84375 -79.234375 L 55.84375 -60.578125 L 1.4375 -60.578125 L 1.4375 -79.234375 Z M 15 0 L 15 -84.46875 C 15 -90.40625 16.109375 -95.320312 18.328125 -99.21875 C 20.554688 -103.125 23.703125 -106.03125 27.765625 -107.9375 C 31.835938 -109.851562 36.625 -110.8125 42.125 -110.8125 C 45.476562 -110.8125 48.660156 -110.59375 51.671875 -110.15625 C 54.691406 -109.726562 56.894531 -109.375 58.28125 -109.09375 L 55.1875 -90.578125 C 54.28125 -90.765625 53.144531 -90.941406 51.78125 -91.109375 C 50.414062 -91.273438 49.113281 -91.359375 47.875 -91.359375 C 44.90625 -91.359375 42.820312 -90.703125 41.625 -89.390625 C 40.425781 -88.078125 39.828125 -86.175781 39.828125 -83.6875 L 39.828125 0 Z M 15 0 "/></g></g></g></g></g></svg>